<?xml version="1.0" encoding="UTF-8" standalone="no"?>
<!-- Created with Inkscape (http://www.inkscape.org/) -->

<svg
   version="1.1"
   id="svg2"
   width="203.78189"
   height="194.37686"
   viewBox="0 0 203.78189 194.37686"
   sodipodi:docname="camembertObjectifs.svg"
   inkscape:version="1.1 (ce6663b3b7, 2021-05-25)"
   xmlns:inkscape="http://www.inkscape.org/namespaces/inkscape"
   xmlns:sodipodi="http://sodipodi.sourceforge.net/DTD/sodipodi-0.dtd"
   xmlns="http://www.w3.org/2000/svg"
   xmlns:svg="http://www.w3.org/2000/svg">
  <defs
     id="defs6" />
  <sodipodi:namedview
     id="namedview4"
     pagecolor="#ffffff"
     bordercolor="#666666"
     borderopacity="1.0"
     inkscape:pageshadow="2"
     inkscape:pageopacity="0.0"
     inkscape:pagecheckerboard="0"
     showgrid="false"
     fit-margin-top="0"
     fit-margin-left="0"
     fit-margin-right="0"
     fit-margin-bottom="0"
     inkscape:zoom="3.573913"
     inkscape:cx="116.67883"
     inkscape:cy="221.60584"
     inkscape:window-width="1853"
     inkscape:window-height="1025"
     inkscape:window-x="67"
     inkscape:window-y="27"
     inkscape:window-maximized="1"
     inkscape:current-layer="g8" />
  <g
     inkscape:groupmode="layer"
     inkscape:label="Image"
     id="g8"
     transform="translate(-12.395346,-21.660797)">
    <g
       id="g32003">
      <ellipse
         style="opacity:0.5;fill:#800080;stroke:#800080;stroke-width:74.3711"
         id="path929"
         cx="110.05006"
         cy="110.40272"
         rx="55.168655"
         ry="51.55637" />
      <path
         style="fill:none;stroke:#000000;stroke-width:1px;stroke-linecap:butt;stroke-linejoin:miter;stroke-opacity:1"
         d="m 109.39815,110.4608 92.2264,7.15488"
         id="path1046" />
      <path
         style="fill:none;stroke:#000000;stroke-width:1px;stroke-linecap:butt;stroke-linejoin:miter;stroke-opacity:1"
         d="M 109.39815,110.4608 126.50063,23.385731"
         id="path1276" />
      <path
         style="fill:none;stroke:#000000;stroke-width:1px;stroke-linecap:butt;stroke-linejoin:miter;stroke-opacity:1"
         d="m 109.39815,110.4608 52.19238,73.93564"
         id="path1278" />
      <path
         style="opacity:0.5;fill:#800080;stroke:none;stroke-width:27.4958"
         d="M 105.62652,198.89292 C 85.468515,197.89908 66.273431,190.68077 50.88844,178.30869 35.803781,166.17813 25.041571,149.5213 20.469404,131.22871 c -1.956642,-7.82825 -2.421959,-11.83317 -2.421959,-20.8455 0,-9.00048 0.466093,-13.020268 2.412777,-20.808829 10.317891,-41.281247 50.200655,-69.853891 94.343698,-67.58932 4.11334,0.211018 10.74047,0.917398 10.99502,1.17195 0.0406,0.04056 -3.75764,19.588117 -8.44046,43.439016 -4.68281,23.850897 -8.5142,43.560193 -8.5142,43.798443 0,0.23824 11.6882,16.98509 25.97377,37.21521 l 25.97378,36.78205 -2.26027,1.3468 c -15.61779,9.30597 -34.70454,14.05173 -52.90504,13.15439 z"
         id="path18106" />
      <path
         style="opacity:0.5;fill:#00ffff;stroke:none;stroke-width:27.4958"
         d="m 201.72342,117.66057 -0.12366,-0.6971 -26.1618,-2.02603 c -14.38899,-1.11432 -34.8823,-2.70087 -45.54069,-3.52567 -10.65839,-0.8248 -19.44614,-1.56688 -19.52833,-1.64907 -0.13126,-0.13127 16.61984,-86.105504 16.82578,-86.357508 0.0442,-0.05415 1.37922,0.183387 2.96659,0.527864 17.79928,3.862629 34.27088,12.860692 46.76489,25.546615 7.46014,7.574722 13.39131,16.171364 17.64564,25.575605 4.77261,10.549887 7.21728,21.183669 7.60716,33.089494 0.14145,4.31912 -0.18136,11.06157 -0.45558,9.5158 z"
         id="path18219" />
      <path
         style="opacity:0.5;fill:#00ff66;stroke:none;stroke-width:27.4958"
         d="m 136.35961,147.50904 c -14.02929,-19.88058 -25.47531,-36.1795 -25.43561,-36.21983 0.0397,-0.0403 20.3585,1.50211 45.15289,3.42762 24.79438,1.92551 45.22903,3.50093 45.41033,3.50093 0.41879,0 0.16683,3.01728 -0.616,7.37683 -3.67122,20.44497 -14.99356,39.31781 -31.58898,52.6547 -2.14177,1.72123 -5.45758,4.17303 -6.71533,4.96551 l -0.69951,0.44075 z"
         id="path18295" />
      <path
         style="opacity:0.5;fill:#d5d5ff;stroke:none;stroke-width:27.4958"
         d="m 103.24818,198.63028 c -12.344653,-1.08 -23.599647,-4.07593 -34.03043,-9.05845 -26.356635,-12.58992 -44.665936,-36.1546 -49.896936,-64.21903 -0.80652,-4.327 -1.128338,-8.62691 -1.130839,-15.10949 -0.0033,-8.57367 0.624969,-13.792502 2.543201,-21.125305 3.997318,-15.280501 11.515975,-28.365184 22.759946,-39.609021 7.634017,-7.633925 15.945286,-13.590755 25.059189,-17.960352 17.29015,-8.28964 35.176179,-11.13606 54.645799,-8.696447 2.44734,0.30666 2.46123,0.312893 2.31651,1.039598 -0.0801,0.402098 -1.3369,6.900796 -2.79294,14.44155 -1.45604,7.540755 -3.72123,19.187652 -5.03376,25.881995 -7.3366,37.418992 -8.84364,45.263642 -8.84364,46.034152 0,0.31425 0.66903,1.51167 1.48673,2.66094 0.81771,1.14927 4.42963,6.30765 8.02651,11.46306 7.07764,10.14441 25.24879,35.96622 35.72355,50.76436 l 6.52155,9.21327 -2.44547,1.42864 c -7.8169,4.56664 -16.31257,8.01067 -25.19284,10.21285 -7.75809,1.9239 -12.79128,2.55142 -21.32197,2.65838 -3.92427,0.0492 -7.70165,0.0399 -8.39416,-0.0207 z"
         id="path18408" />
      <text
         xml:space="preserve"
         style="font-style:normal;font-weight:normal;font-size:10.6667px;line-height:1.25;font-family:sans-serif;fill:#000000;fill-opacity:1;stroke:none"
         x="37.100662"
         y="114.25528"
         id="text1568"><tspan
           sodipodi:role="line"
           id="tspan1566"
           x="37.100662"
           y="114.25528"
           style="font-size:10.6667px">Observation</tspan></text>
      <text
         xml:space="preserve"
         style="font-style:normal;font-weight:normal;font-size:10.6667px;line-height:0.85;font-family:sans-serif;fill:#000000;fill-opacity:1;stroke:none"
         x="125.14249"
         y="131.89796"
         id="text8354"><tspan
           sodipodi:role="line"
           id="tspan8352"
           x="125.14249"
           y="131.89796">Interprétation</tspan></text>
      <text
         xml:space="preserve"
         style="font-style:normal;font-weight:normal;font-size:10.6667px;line-height:1.25;font-family:sans-serif;fill:#000000;fill-opacity:1;stroke:none"
         x="116.59087"
         y="98.58374"
         id="text11788"><tspan
           sodipodi:role="line"
           id="tspan11786"
           x="116.59087"
           y="98.58374"
           style="font-size:10.6667px">Programmation</tspan></text>
    </g>
    <text
       xml:space="preserve"
       style="font-style:normal;font-weight:normal;font-size:10.6667px;line-height:1.25;font-family:sans-serif;fill:#000000;fill-opacity:1;stroke:none"
       x="11.348468"
       y="213.81891"
       id="text29123"><tspan
         sodipodi:role="line"
         id="tspan29121"
         x="11.348468"
         y="213.81891"
         style="font-size:10.6667px">Répartition du travail de data scientist</tspan></text>
  </g>
</svg>
